<?xml version="1.0" standalone="no"?>
<!DOCTYPE svg PUBLIC "-//W3C//DTD SVG 20010904//EN"
 "http://www.w3.org/TR/2001/REC-SVG-20010904/DTD/svg10.dtd">
<svg version="1.0" xmlns="http://www.w3.org/2000/svg"
 width="1000.000000pt" height="1000.000000pt" viewBox="0 0 1000.000000 1000.000000"
 preserveAspectRatio="xMidYMid meet">
<metadata>
Created by potrace 1.11, written by Peter Selinger 2001-2013
</metadata>
<g transform="translate(0.000000,1000.000000) scale(0.100000,-0.100000)"
fill="#000000" stroke="none">
<path d="M0 5000 l0 -5000 5000 0 5000 0 0 4063 0 4062 -938 938 -937 937
-313 0 -312 0 0 -2030 c0 -1926 -1 -2030 -17 -2031 -23 -1 -4965 -1 -4975 0
-5 1 -8 914 -8 2031 l0 2030 -1250 0 -1250 0 0 -5000z m8750 -2188 l0 -2187
-3750 0 -3750 0 0 2187 0 2188 3750 0 3750 0 0 -2188z"/>
<path d="M1879 4370 c-5 -19 -3 -603 1 -611 4 -5 1209 -8 3125 -7 l3120 3 0
308 c0 267 -2 307 -15 308 -52 4 -6230 3 -6231 -1z"/>
<path d="M1876 3120 c-1 -3 -2 -142 -2 -310 l1 -305 3125 -3 3125 -2 0 312 0
313 -3124 0 c-1717 0 -3124 -2 -3125 -5z"/>
<path d="M1877 1865 c-2 -5 -3 -145 -3 -310 l1 -300 3125 0 3125 0 0 308 c0
200 -3 307 -10 308 -5 1 -1411 2 -3122 3 -2068 1 -3114 -2 -3116 -9z"/>
<path d="M5637 9370 c-10 -4 -12 -300 -11 -1390 1 -762 2 -1392 3 -1401 1 -14
61 -16 609 -16 334 -1 614 1 622 3 13 3 15 165 14 1396 -1 766 -2 1398 -3
1403 -1 10 -1209 15 -1234 5z"/>
</g>
</svg>
